<?xml version="1.0" encoding="UTF-8" standalone="no"?>
<svg
   xmlns:dc="http://purl.org/dc/elements/1.1/"
   xmlns:cc="http://creativecommons.org/ns#"
   xmlns:rdf="http://www.w3.org/1999/02/22-rdf-syntax-ns#"
   xmlns:svg="http://www.w3.org/2000/svg"
   xmlns="http://www.w3.org/2000/svg"
   xmlns:sodipodi="http://sodipodi.sourceforge.net/DTD/sodipodi-0.dtd"
   xmlns:inkscape="http://www.inkscape.org/namespaces/inkscape"
   inkscape:export-ydpi="6.3200002"
   inkscape:export-xdpi="6.3200002"
   inkscape:export-filename="/home/zero/src/wikipedia-tw-redirector/logo128.png"
   width="512mm"
   height="512mm"
   viewBox="0 0 512 512"
   version="1.1"
   id="svg8"
   inkscape:version="1.0 (4035a4fb49, 2020-05-01)"
   sodipodi:docname="logo.svg">
  <defs
     id="defs2">
    <clipPath
       clipPathUnits="userSpaceOnUse"
       id="clipPath16">
      <path
         d="M 0,595.28 H 841.89 V 0 H 0 Z"
         id="path18" />
    </clipPath>
    <mask
       maskUnits="userSpaceOnUse"
       id="mask1029">
      <rect
         ry="88.77037"
         y="114.26455"
         x="18.93087"
         height="504.8353"
         width="505.41202"
         id="rect1031"
         style="fill:#cccccc;fill-rule:evenodd;stroke-width:0.291335" />
    </mask>
  </defs>
  <sodipodi:namedview
     id="base"
     pagecolor="#ffffff"
     bordercolor="#666666"
     borderopacity="1.0"
     inkscape:pageopacity="0.0"
     inkscape:pageshadow="2"
     inkscape:zoom="0.35"
     inkscape:cx="744.885"
     inkscape:cy="1087.3166"
     inkscape:document-units="px"
     inkscape:current-layer="layer1"
     inkscape:document-rotation="0"
     showgrid="false"
     inkscape:snap-text-baseline="true"
     inkscape:window-width="2103"
     inkscape:window-height="1206"
     inkscape:window-x="50"
     inkscape:window-y="50"
     inkscape:window-maximized="0" />
  <metadata
     id="metadata5">
    <rdf:RDF>
      <cc:Work
         rdf:about="">
        <dc:format>image/svg+xml</dc:format>
        <dc:type
           rdf:resource="http://purl.org/dc/dcmitype/StillImage" />
        <dc:title />
      </cc:Work>
    </rdf:RDF>
  </metadata>
  <g
     style="opacity:0.92"
     inkscape:label="Layer 1"
     inkscape:groupmode="layer"
     id="layer1">
    <rect
       style="fill:#cccccc;fill-rule:evenodd;stroke-width:0.291336"
       id="rect18"
       width="505.41202"
       height="504.8353"
       x="1.8643097"
       y="5.3965712"
       ry="88.77037" />
    <text
       xml:space="preserve"
       style="font-style:normal;font-weight:normal;font-size:747.062px;line-height:1.25;font-family:sans-serif;fill:#808080;fill-opacity:1;stroke:none;stroke-width:1.16729"
       x="-66.240952"
       y="629.8631"
       id="text845"
       mask="url(#mask1029)"
       transform="translate(-17.066559,-107.28047)"><tspan
         sodipodi:role="line"
         id="tspan843"
         x="-66.240952"
         y="629.8631"
         style="font-style:normal;font-variant:normal;font-weight:bold;font-stretch:normal;font-size:747.062px;font-family:'Droid Sans';-inkscape-font-specification:'Droid Sans Bold';fill:#808080;fill-opacity:1;stroke-width:1.16729">W</tspan></text>
    <g
       id="g10"
       transform="matrix(0.89702663,0,0,-0.89702663,-121.54122,523.26823)"
       style="fill:#006000;fill-opacity:1">
      <g
         id="g12"
         style="fill:#006000;fill-opacity:1">
        <g
           id="g14"
           clip-path="url(#clipPath16)"
           style="fill:#006000;fill-opacity:1">
          <g
             id="g20"
             transform="translate(408.0548,134.8162)"
             style="fill:#006000;fill-opacity:1">
            <path
               d="m 0,0 -4.177,-5.105 c 0,0 -8.044,-26.144 -8.972,-27.536 -0.928,-1.392 -4.332,-14.077 -4.641,-14.851 0,0 0.039,-1.325 0,-2.287 -0.039,-0.961 0.553,-2.809 0.553,-2.809 0,0 0.813,-8.356 0.221,-9.317 -0.591,-0.961 -0.776,-1.774 -0.776,-1.774 0,0 0.998,-3.032 0.776,-5.028 -0.221,-1.997 -0.776,-3.993 -0.776,-3.993 l -0.85,-1.775 c 0,0 0.37,-3.697 1.109,-3.697 0.739,0 1.183,0.37 1.183,-0.295 0,-0.666 -1.627,-4.954 -1.627,-4.954 0,0 1.997,-5.694 1.553,-6.137 -0.444,-0.444 -1.331,-1.035 -1.331,-1.035 l -2.736,-4.289 -2.144,-1.109 -1.701,-0.887 -0.665,-5.472 c 0,0 0.296,-1.848 0.813,-2.736 0.518,-0.887 1.701,-4.51 1.701,-4.51 0,0 2.144,-1.479 0.813,-1.701 -1.331,-0.222 -2.07,0 -2.07,0 0,0 -6.729,6.655 -7.394,6.877 -0.666,0.222 -2.662,0.665 -2.662,0.665 l -2.44,1.923 -0.961,0.221 -2.292,-2.44 c 0,0 0.665,-1.183 0.369,-1.626 -0.295,-0.444 -3.105,-3.475 -3.253,-2.958 -0.148,0.518 -2.144,5.028 -2.144,5.028 0,0 0.887,5.176 0.37,6.285 -0.518,1.109 -3.476,5.693 -3.476,5.693 v 2.292 c 0,0 1.923,1.775 2.071,2.884 0.148,1.109 0,2.81 0,2.81 0,0 -0.518,1.553 0.148,2.144 0.665,0.592 1.922,1.035 1.922,1.627 0,0.591 -3.993,12.348 -4.141,14.122 -0.148,1.775 -1.109,3.993 -1.109,3.993 l -3.993,6.951 c 0,0 -1.7,8.429 -2.514,9.39 -0.813,0.961 -3.179,3.253 -3.918,4.067 -0.74,0.813 -2.514,4.658 -2.514,4.658 0,0 -8.799,6.359 -10.13,6.876 -1.331,0.518 -4.954,3.254 -7.098,4.363 -2.145,1.109 -4.585,3.401 -5.324,4.362 -0.739,0.961 -2.144,3.106 -2.218,3.475 -0.074,0.37 -0.444,5.102 -0.444,5.102 l 2.292,3.771 c 0,0 1.479,4.954 1.183,5.841 -0.295,0.888 -1.405,2.901 -1.405,2.901 0,0 0.222,-5.119 -0.147,-6.08 -0.37,-0.961 -2.81,-4.88 -2.81,-4.88 l -0.592,-8.133 -2.292,0.887 -11.017,8.133 -0.739,3.032 3.697,-2.071 0.148,1.849 -2.071,0.739 c 0,0 1.331,1.257 -0.591,1.923 -1.923,0.665 -3.106,1.7 -3.106,1.7 l -0.665,1.627 -4.363,3.993 c 0,0 -4.51,5.471 -2.957,7.911 1.553,2.44 3.993,4.437 3.179,5.102 -0.813,0.666 -1.331,0.814 -1.626,1.035 -0.296,0.222 -0.592,1.775 -0.592,1.775 0,0 -0.296,2.662 -0.518,2.662 h -0.769 l -5.368,12.496 h -1.626 l 0.295,3.327 -2.513,5.324 2.366,-0.444 0.074,1.553 h -1.553 c 0,0 -3.032,6.728 -3.032,8.429 0,1.701 -0.517,4.88 -0.517,4.88 v 3.919 l -8.06,6.285 -6.654,4.658 c 0,0 5.989,6.211 4.658,6.581 -1.331,0.369 -4.215,0 -4.215,0 l -2.957,-0.222 1.183,-4.954 -3.697,1.922 v 6.877 l 7.024,3.253 0.739,0.444 -1.848,3.475 -0.148,3.919 -0.813,2.07 2.809,5.841 1.849,0.74 -0.296,2.144 1.331,4.51 c 0,0 -1.553,0.37 -1.479,0.592 0.074,0.222 0.148,3.401 0.444,3.697 0.296,0.296 2.07,2.44 2.07,3.993 0,1.552 0.296,3.697 0.296,3.697 0,0 1.775,4.732 2.958,4.436 1.183,-0.296 1.996,-2.366 1.996,-2.366 l 0.296,2.379 0.443,4.275 -1.626,4.881 c 0,0 0.591,3.105 1.183,3.105 0.591,0 2.809,-1.775 2.957,-1.405 0.148,0.37 -2.735,2.884 -2.735,2.884 0,0 -2.81,-1.553 -2.588,-1.035 0.221,0.517 3.992,6.211 2.883,6.285 -1.109,0.074 -3.549,0 -3.549,0 l -2.292,2.144 0.222,2.883 h 4.584 l 3.327,-1.478 c 0,0 6.359,-0.37 5.694,-0.222 -0.666,0.148 -6.137,2.144 -6.137,2.144 0,0 -3.401,2.662 -3.549,3.993 -0.148,1.331 -0.444,5.471 -0.444,5.471 l 0.222,3.624 c 0,0 -1.257,1.922 -0.666,2.587 0.592,0.666 2.884,7.69 2.884,7.69 l 1.701,3.106 2.44,3.401 0.591,4.806 -2.514,-1.898 1.257,5.225 -1.626,2.44 c 0,0 2.366,2.958 2.292,3.402 -0.074,0.443 -1.553,1.404 -1.553,1.404 l 3.179,2.367 2.958,0.813 1.183,1.479 1.331,1.183 10.204,-3.328 6.063,-0.074 c 0,0 9.908,2.219 10.351,2.367 0.444,0.147 0.296,0.739 0.296,0.739 l -14.862,-2.366 -5.989,2.662 -2.736,2.218 c 0,0 0,1.922 0.888,2.292 0.887,0.37 2.44,0.592 2.44,0.592 l 1.996,1.922 4.141,7.69 -0.828,1.276 -0.92,0.704 3.518,7.307 1.949,0.325 0.92,1.515 0.704,1.732 2.219,4.926 1.895,1.028 c 0,0 1.786,1.678 -0.542,2.274 -2.327,0.595 -1.786,0.649 -1.786,0.649 l 1.191,2.977 4.059,0.271 4.439,2.327 0.92,4.168 c 0,0 -2.273,0.596 -2.436,0.217 -0.162,-0.379 -2.49,-3.952 -2.49,-3.952 0,0 -1.569,-2.76 -3.572,-1.028 l 5.954,7.415 v 1.083 c 0,0 0.65,2.003 2.49,2.057 1.84,0.054 2.923,0 2.923,0 l 1.515,2.111 0.325,1.786 1.624,1.245 h 2.49 l 2.544,-2.923 0.27,-2.923 -0.054,4.276 -2.273,2.274 -4.439,2.706 c 0,0 -2.219,0 -1.732,0.974 0.488,0.975 1.57,3.464 1.57,3.464 l 1.624,-0.324 -0.108,-2.22 c 0,0 0.487,2.49 1.353,2.22 0.866,-0.271 1.678,-0.975 1.678,-0.975 l 0.216,1.841 c 0,0 1.353,5.791 1.841,5.358 0.487,-0.433 1.245,-2.544 1.245,-2.544 l 1.244,4.331 c 0,0 -4.221,-0.055 -3.41,0.974 0.812,1.028 1.408,3.951 2.869,2.977 1.462,-0.974 2.436,-1.299 2.436,-1.299 l 0.92,2.869 1.732,0.595 c 0,0 5.738,-1.57 5.9,-1.678 0.162,-0.108 9.472,-4.763 9.472,-4.763 l 1.787,0.27 c 0,0 -8.228,5.359 -9.96,5.738 -1.732,0.379 -9.256,1.191 -8.281,2.652 0.974,1.462 2.165,2.544 2.165,2.544 l 2.977,6.117 2.977,-0.596 4.709,-3.951 c 0,0 7.632,-1.516 8.552,-1.678 0.92,-0.162 2.544,0.758 3.897,-0.65 1.353,-1.407 6.387,-5.25 6.387,-5.25 0,0 -5.304,5.683 -6.658,6.225 -1.353,0.541 -4.871,1.245 -4.871,1.245 l -6.82,2.435 c 0,0 -5.467,3.735 -5.9,4.385 -0.433,0.649 0.65,2.165 0.65,2.165 0,0 8.389,9.364 9.093,11.962 0.704,2.598 2.598,6.712 2.598,6.712 l 4.763,11.366 4.06,1.191 3.41,0.325 -2.761,2.057 c 0,0 1.732,2.923 3.032,4.546 1.299,1.624 4.33,2.274 4.33,2.274 0,0 2.706,0.704 4.546,-0.325 1.841,-1.028 3.789,-0.92 3.789,-0.92 l 1.841,1.48 c 0,0 -4.439,-1.985 -4.98,0 -0.541,1.984 1.245,3.446 1.245,3.446 l 2.003,2.435 3.41,4.818 c 0,0 2.489,2.435 2.111,4.763 -0.379,2.327 -0.109,3.464 -0.109,3.464 0,0 2.221,8.065 4.71,11.042 2.489,2.977 3.897,6.116 3.897,6.116 0,0 5.791,10.718 6.982,11.8 1.191,1.083 0.974,1.895 1.732,3.843 0.758,1.949 1.516,6.495 7.47,9.094 5.954,2.598 7.307,4.059 7.307,4.059 l 4.655,1.353 6.441,2.111 c 0,0 6.116,4.33 8.011,4.709 1.894,0.379 5.25,0.65 5.25,0.65 0,0 11.421,2.49 13.045,3.085 1.624,0.596 6.062,3.843 6.062,3.843 l 2.869,-0.325 c 0,0 2.76,-6.82 3.031,-7.577 0.271,-0.758 3.356,-2.761 3.356,-2.761 0,0 2.977,-0.487 2.706,-0.216 -0.27,0.27 -2.111,1.732 -2.165,1.894 -0.054,0.162 -4.492,8.714 -4.492,8.714 l -2.057,1.57 c 0,0 -3.843,0.65 -3.194,2.165 0.65,1.516 2.274,2.977 2.274,2.977 l 2.111,2.544 2.489,5.359 2.166,0.433 2.327,2.977 6.116,2.436 5.846,1.353 4.601,-0.92 c 0,0 3.626,-1.787 4.005,-2.977 0.379,-1.191 1.354,-5.413 1.354,-5.413 l 3.301,-4.493 3.681,-1.353 1.678,0.163 c 0,0 -0.271,-2.003 -0.271,-2.436 0,-0.433 2.707,-1.57 2.653,-2.544 -0.055,-0.974 0,-1.462 0,-1.462 l 5.575,-1.353 0.703,-2.327 c 0,0 1.245,2.76 3.356,2.002 2.111,-0.757 3.356,-1.245 3.356,-1.245 l 3.951,-3.031 c 0,0 12.017,-0.595 12.774,-0.703 0.758,-0.109 1.624,-1.083 1.624,-1.083 0,0 -0.576,-6.068 -0.228,-6.808 0.348,-0.739 1.48,-2.132 1.48,-2.132 l 0.435,-1.61 0.304,-3.132 0.522,-1.741 5.831,0.348 1.914,-1.349 c 0,0 1.001,0.392 1.219,0.479 0.217,0.087 0.13,0.783 0.478,-0.131 0.348,-0.913 1.306,-0.609 0.609,-1.827 -0.696,-1.218 -1.914,-1.566 -1.914,-1.566 0,0 -6.483,-3.786 -6.788,-3.829 -0.304,-0.044 -3.089,-1.001 -4.046,-2.393 -0.957,-1.393 -10.747,-14.011 -11.618,-15.142 -0.87,-1.131 -1.566,-2.219 -1.566,-2.219 l -1.523,-11.618 0.392,-6.178 c 0,0 1.32,-5.556 1.525,-6.509 0.204,-0.952 0.612,-3.606 0.612,-3.606 l 1.429,-7.008 c 0,0 1.361,-1.837 1.973,-3.13 0.612,-1.293 2.109,-1.361 1.293,-2.041 -0.817,-0.68 -1.769,-1.157 -1.769,-1.157 l 2.041,-1.973 1.089,-1.837 -1.089,-1.497 0.068,-5.783 -3.81,-1.497 c 0,0 -2.246,-3.13 -1.021,-4.219 1.225,-1.088 3.402,-0.952 2.245,-1.837 -1.156,-0.884 -1.565,-1.224 -1.565,-1.224 l -3.742,-3.334 -1.02,-2.314 -2.654,-3.334 -0.952,-8.369 -0.749,-1.088 c 0,0 -0.272,-6.192 -1.565,-6.464 -1.293,-0.272 -2.653,0 -2.653,0 0,0 -1.157,3.13 -1.837,2.313 -0.681,-0.816 -1.633,-1.292 -1.633,-1.292 l -5.648,1.565 c 0,0 -4.218,0.136 -3.538,-0.137 0.681,-0.272 11.023,-2.789 12.383,-3.606 1.361,-0.816 1.906,-1.292 1.906,-1.292 l -1.906,-4.559 -3.47,-5.579 -3.129,-1.905 -2.314,-2.926 -4.014,-3.266 c 0,0 0.272,-6.94 -0.476,-8.505 -0.749,-1.565 -1.974,-4.287 -1.974,-4.287 l -4.49,-4.899 0.136,-4.558 c 0,0 3.878,-5.511 3.606,-7.553 -0.272,-2.041 -1.633,-4.014 -1.633,-4.014 0,0 -2.449,-2.109 -3.062,-4.286 -0.612,-2.178 0.136,-8.097 -0.34,-9.39 -0.476,-1.293 -2.109,-11.567 -4.627,-16.194 0,0 -0.476,-2.585 -0.68,-4.014 -0.204,-1.429 0,-4.15 0,-4.15 l -0.748,-0.885 -1.974,-4.218 c 0,0 -0.136,-2.382 -0.136,-3.674 0,-1.293 -0.068,-2.314 -0.068,-2.314 l -3.946,-13.2 c 0,0 0.952,1.293 0.068,-1.224 -0.885,-2.518 -2.654,-9.798 -2.654,-9.798 0,0 0.953,-6.804 0.409,-8.097 -0.545,-1.293 -1.361,-2.109 -1.361,-2.109 l -1.769,-1.837 c 0,0 1.769,-1.565 1.293,-3.062 -0.477,-1.497 -0.613,-1.565 -0.885,-2.245 -0.272,-0.681 -3.606,-14.765 -3.606,-14.765 l -1.089,-1.905 -3.946,-5.851 -3.47,-11.295 -2.041,-2.518 1.905,-5.987 c 0,0 -0.817,-5.103 -1.837,-6.532 C 56.114,83.32 53.733,79.918 52.644,78.966 51.556,78.013 50.399,76.04 50.399,76.04 l -4.627,-12.383 -2.245,-4.083 -2.994,-2.517 -3.062,-7.416 -4.626,-6.396 -2.79,0.408 c 0,0 -2.994,-2.381 -2.994,-3.13 V 38.482 L 28.15,32.971 26.245,30.453 24.203,27.051 21.618,24.466 16.311,18.818 10.8,16.981 c 0,0 -3.743,-3.402 -5.308,-4.49 -1.564,-1.089 -2.517,-1.837 -2.517,-1.837 0,0 -3.402,-6.872 -3.402,-8.505 C -0.427,0.516 0,0 0,0"
               style="fill:#006000;fill-opacity:1;fill-rule:nonzero;stroke:none"
               id="path22" />
          </g>
        </g>
      </g>
    </g>
    <text
       xml:space="preserve"
       style="font-style:normal;font-variant:normal;font-weight:normal;font-stretch:normal;font-size:241.377px;line-height:1.25;font-family:'Clear Sans Medium';-inkscape-font-specification:'Clear Sans Medium, ';letter-spacing:12.3289px;word-spacing:0px;fill:#000000;fill-opacity:1;stroke:#000000;stroke-width:20.1741;stroke-miterlimit:4;stroke-dasharray:none;stroke-opacity:1;paint-order:stroke markers fill"
       x="495.4733"
       y="337.0054"
       id="text1006"><tspan
         sodipodi:role="line"
         x="507.80222"
         y="337.0054"
         style="font-style:normal;font-variant:normal;font-weight:normal;font-stretch:normal;font-size:241.377px;font-family:'Clear Sans Medium';-inkscape-font-specification:'Clear Sans Medium, ';text-align:end;text-anchor:end;fill:#ffffff;fill-opacity:1;stroke:#000000;stroke-width:20.1741;stroke-miterlimit:4;stroke-dasharray:none;stroke-opacity:1;paint-order:stroke markers fill"
         id="tspan70">台正</tspan></text>
  </g>
</svg>
